<?xml version="1.0" standalone="no"?>
<!DOCTYPE svg PUBLIC "-//W3C//DTD SVG 20010904//EN"
 "http://www.w3.org/TR/2001/REC-SVG-20010904/DTD/svg10.dtd">
<svg version="1.0" xmlns="http://www.w3.org/2000/svg"
 width="512.000000pt" height="512.000000pt" viewBox="0 0 512.000000 512.000000"
 preserveAspectRatio="xMidYMid meet">
<metadata>
Created by potrace 1.15, written by Peter Selinger 2001-2017
</metadata>
<g transform="translate(0.000000,512.000000) scale(0.100000,-0.100000)"
fill="#000000" stroke="none">
<path d="M3480 5087 c-30 -18 -78 -43 -105 -55 l-49 -24 42 46 c23 25 42 48
42 51 0 3 -11 5 -25 5 -18 0 -50 -23 -108 -78 -74 -71 -91 -82 -170 -110 -48
-18 -91 -32 -94 -32 -4 0 39 47 95 104 56 57 102 106 102 110 0 3 -12 6 -26 6
-20 0 -57 -30 -158 -129 l-131 -130 -100 -36 -100 -36 158 159 c86 87 157 161
157 165 0 4 -12 7 -26 7 -21 0 -66 -39 -213 -184 -183 -182 -187 -186 -281
-227 -52 -23 -106 -49 -120 -57 -14 -9 80 90 208 219 127 129 232 238 232 242
0 4 -12 7 -27 7 -22 0 -113 -86 -525 -497 -273 -273 -499 -495 -501 -492 -3 2
-12 19 -22 38 l-17 33 -26 -23 c-15 -13 187 192 448 456 398 401 471 479 453
483 -13 2 -35 -6 -50 -17 -16 -11 -592 -584 -1280 -1273 -1053 -1053 -1253
-1258 -1253 -1281 0 -15 3 -27 7 -27 4 0 343 334 752 743 409 408 728 722 709
697 -49 -61 -120 -173 -153 -240 -22 -45 -142 -171 -671 -700 -536 -537 -644
-650 -644 -673 0 -15 3 -27 7 -27 4 0 279 271 612 603 332 331 601 594 598
584 -4 -10 -16 -50 -28 -90 l-21 -72 -584 -585 c-485 -486 -584 -590 -584
-613 0 -15 3 -27 7 -27 4 0 261 253 570 562 310 310 563 559 563 554 0 -5 -5
-39 -11 -75 -11 -65 -13 -68 -97 -153 -90 -91 -102 -95 -102 -30 0 17 -4 32
-9 32 -23 0 -95 -123 -121 -205 -10 -33 -85 -113 -406 -436 -323 -324 -394
-400 -394 -422 0 -15 3 -27 7 -27 4 0 175 168 380 372 205 205 373 370 373
368 0 -3 -6 -38 -14 -79 l-14 -74 -366 -366 c-300 -301 -366 -372 -366 -394 0
-15 3 -27 7 -27 4 0 167 159 361 352 l354 353 -6 -70 -7 -70 -354 -356 c-291
-291 -355 -360 -355 -382 0 -15 3 -27 7 -27 4 0 163 156 354 346 l347 347 -5
-69 -5 -69 -349 -351 c-285 -286 -349 -355 -349 -377 0 -15 3 -27 7 -27 4 0
162 154 350 342 l343 343 0 -65 0 -64 -350 -351 c-286 -287 -350 -356 -350
-378 0 -15 3 -27 7 -27 4 0 164 156 355 347 l348 348 0 -65 0 -64 -355 -356
c-291 -292 -355 -361 -355 -383 0 -15 3 -27 7 -27 4 0 166 158 360 352 380
380 353 359 367 273 4 -28 -18 -53 -365 -401 -302 -303 -369 -375 -369 -397 0
-15 3 -27 7 -27 4 0 172 165 374 366 l366 366 21 -43 22 -44 -395 -395 c-325
-325 -395 -401 -395 -423 0 -15 3 -27 7 -27 4 0 265 257 580 572 l572 572 -40
-104 -41 -105 -539 -540 c-447 -448 -539 -545 -539 -568 0 -15 3 -27 7 -27 4
0 236 228 516 508 l508 507 -36 -100 -36 -100 -480 -480 c-396 -397 -479 -486
-479 -508 0 -15 3 -27 7 -27 4 0 209 201 455 447 247 246 448 445 448 441 0
-3 -14 -46 -31 -95 l-31 -88 -399 -400 c-219 -220 -399 -404 -399 -408 0 -4
12 -7 27 -7 22 0 91 64 380 352 l353 352 -31 -94 -31 -95 -249 -250 c-137
-138 -249 -254 -249 -258 0 -4 12 -7 26 -7 20 0 57 30 155 127 l129 126 0 -39
c0 -22 5 -45 12 -52 9 -9 -4 -28 -55 -81 -37 -38 -67 -72 -67 -75 0 -3 11 -6
24 -6 16 0 46 19 83 54 l59 54 36 -27 36 -27 -20 -24 -20 -25 21 -3 c11 -2 30
3 41 11 18 13 27 13 68 1 69 -21 308 -17 342 6 14 9 67 31 118 48 l94 31 -41
-44 c-23 -25 -41 -47 -41 -50 0 -3 11 -5 24 -5 17 0 50 23 100 70 42 39 79 70
83 70 5 0 44 11 87 25 l79 24 -86 -88 c-48 -49 -87 -91 -87 -95 0 -3 12 -6 26
-6 19 0 54 28 140 112 112 110 115 112 201 139 49 16 90 29 93 29 2 0 -55 -60
-128 -133 -73 -74 -132 -137 -132 -140 0 -4 12 -7 26 -7 21 0 62 35 188 158
l161 159 77 21 c42 12 80 22 84 22 5 0 -69 -78 -164 -173 -95 -95 -172 -176
-172 -180 0 -4 12 -7 26 -7 21 0 68 40 223 194 l196 194 72 16 c40 9 75 16 80
16 4 0 -84 -91 -195 -203 -111 -112 -202 -206 -202 -210 0 -4 12 -7 27 -7 21
0 71 44 247 219 l221 219 70 7 70 7 -217 -219 c-120 -120 -218 -222 -218 -226
0 -4 12 -7 27 -7 21 0 72 45 257 229 l231 230 48 -10 c26 -6 47 -14 47 -17 0
-4 -88 -95 -196 -202 -107 -107 -200 -203 -205 -212 -8 -15 -5 -18 17 -18 22
0 68 40 234 205 l206 205 48 -16 48 -16 -181 -182 c-100 -100 -181 -185 -181
-189 0 -4 12 -7 26 -7 21 0 65 38 209 181 196 194 176 181 262 163 25 -5 17
-14 -135 -168 -89 -89 -162 -165 -162 -169 0 -4 12 -7 26 -7 21 0 63 36 195
166 l168 166 57 -7 56 -7 -151 -152 c-83 -84 -151 -156 -151 -159 0 -4 12 -7
26 -7 21 0 62 35 186 158 l159 157 80 16 79 15 -165 -166 c-91 -92 -165 -169
-165 -173 0 -4 12 -7 27 -7 21 0 68 42 232 203 113 112 224 214 246 227 22 13
81 53 130 90 248 181 247 180 -102 -171 -183 -184 -333 -338 -333 -342 0 -4
12 -7 27 -7 22 0 98 71 422 394 413 410 420 416 505 416 l41 0 -400 -402
c-335 -337 -396 -402 -378 -406 13 -2 35 6 50 17 16 11 335 327 711 703 568
569 682 688 682 711 0 15 -3 27 -7 27 -4 0 -132 -125 -285 -277 -263 -263
-278 -276 -278 -245 0 18 -6 41 -12 52 -12 18 14 46 285 318 243 244 297 303
297 326 0 22 -3 25 -17 17 -10 -5 -153 -145 -318 -310 l-300 -301 -65 0 -64 0
382 383 c316 317 382 388 382 410 0 23 -3 26 -17 18 -10 -5 -205 -197 -433
-425 -228 -229 -419 -416 -425 -416 -19 0 -135 -59 -197 -101 -48 -31 74 96
505 528 470 472 567 573 567 596 0 15 -3 27 -7 27 -4 0 -320 -312 -703 -694
-382 -381 -716 -708 -742 -725 -60 -40 -147 -81 -173 -81 -13 0 254 274 803
823 692 692 822 827 822 850 0 23 -3 26 -17 18 -10 -5 -398 -390 -863 -855
-800 -801 -847 -846 -880 -846 -100 1 -155 -60 839 934 777 777 921 926 921
949 0 23 -3 26 -17 18 -10 -5 -439 -431 -953 -945 -514 -515 -942 -936 -950
-936 -8 0 -33 5 -54 11 l-39 11 1006 1007 c844 843 1007 1011 1007 1034 0 15
-3 27 -7 27 -4 0 -469 -461 -1033 -1025 l-1025 -1025 -47 18 -48 17 1080 1080
c913 913 1080 1085 1080 1108 0 23 -3 26 -17 18 -10 -5 -508 -500 -1106 -1098
l-1088 -1089 -55 10 -54 10 1160 1161 c974 974 1160 1165 1160 1188 0 15 -3
27 -7 27 -4 0 -543 -535 -1198 -1189 l-1190 -1189 -69 -5 -69 -5 1267 1267
c1064 1064 1266 1271 1266 1294 0 15 -3 27 -7 27 -4 0 -593 -585 -1308 -1299
l-1300 -1300 -79 -15 -79 -14 1387 1387 c1165 1166 1386 1391 1386 1414 0 15
-3 27 -7 27 -4 0 -649 -641 -1433 -1424 l-1425 -1424 -66 -16 c-36 -8 -75 -18
-85 -22 -10 -4 664 677 1499 1512 1276 1278 1517 1524 1517 1547 0 15 -3 27
-7 27 -5 0 -710 -702 -1568 -1559 l-1560 -1559 -83 -26 c-46 -14 -86 -26 -90
-26 -4 0 739 746 1651 1658 1395 1396 1657 1662 1657 1685 0 15 -3 27 -7 27
-5 0 -775 -767 -1713 -1704 l-1705 -1705 -95 -30 -94 -30 1807 1807 c1523
1523 1807 1812 1807 1835 0 15 -3 27 -7 27 -5 0 -840 -832 -1858 -1849 l-1850
-1850 -95 -30 -94 -30 1952 1952 c1646 1646 1952 1957 1952 1980 0 15 -3 27
-7 27 -5 0 -908 -900 -2008 -1999 l-2000 -2000 -65 -16 c-36 -8 -74 -17 -85
-20 -10 -2 922 937 2073 2088 1777 1778 2092 2096 2092 2120 0 23 -3 26 -17
18 -10 -5 -965 -957 -2123 -2115 -1158 -1158 -2109 -2106 -2114 -2106 -5 0
-24 10 -43 21 l-35 22 2166 2166 c1827 1827 2166 2170 2166 2194 0 15 -3 27
-7 27 -5 0 -987 -979 -2183 -2175 -1905 -1905 -2178 -2174 -2192 -2163 -15 12
-12 21 32 98 47 80 159 194 2200 2235 1814 1814 2150 2154 2150 2178 0 15 -3
27 -7 27 -5 0 -950 -942 -2102 -2092 -1152 -1151 -2085 -2077 -2074 -2058 12
19 50 87 86 150 66 114 69 117 389 435 l323 320 118 64 c183 100 271 191 404
416 l65 110 1399 1400 c1176 1177 1399 1405 1399 1428 0 15 -3 27 -7 27 -4 0
-564 -555 -1243 -1234 l-1235 -1234 -37 27 -36 28 1214 1214 c669 668 1220
1222 1225 1232 8 14 5 17 -18 17 -23 0 -216 -188 -1248 -1220 l-1221 -1220
-48 16 -48 17 1196 1196 c658 658 1196 1200 1196 1204 0 4 -12 7 -27 7 -23 0
-190 -162 -1026 -997 -1093 -1093 -1009 -1018 -935 -838 25 59 156 200 207
222 21 9 30 17 23 22 -7 4 291 309 764 781 426 426 780 783 785 793 8 14 5 17
-18 17 -23 0 -155 -127 -828 -799 l-800 -799 -70 -6 -70 -6 155 149 c85 82
181 176 213 208 31 32 320 324 642 649 322 324 585 593 585 597 0 4 -12 7 -27
7 -22 0 -111 -84 -511 -482 -267 -266 -481 -474 -477 -463 4 11 17 53 29 93
l22 73 382 382 c210 210 382 386 382 390 0 4 -12 7 -27 7 -22 0 -91 -64 -376
-347 l-349 -348 6 70 7 70 269 270 c149 149 270 274 270 278 0 4 -12 7 -27 7
-21 0 -73 -47 -265 -237 -131 -130 -238 -231 -238 -223 1 8 7 44 14 79 14 63
15 64 165 215 83 84 151 156 151 159 0 4 -12 7 -26 7 -19 0 -54 -27 -136 -107
-83 -81 -109 -102 -105 -83 3 14 9 48 13 75 4 30 16 62 31 79 13 16 23 30 21
31 -2 1 -19 5 -38 8 -27 4 -47 -2 -90 -26z m-926 -1069 c-146 -127 -322 -330
-451 -521 -53 -80 -122 -156 -321 -357 -140 -140 -248 -244 -242 -230 7 14 44
79 83 145 l69 120 447 448 c245 246 452 447 460 447 8 0 -12 -23 -45 -52z
m-114 -21 c0 -1 -131 -133 -291 -292 -289 -287 -291 -289 -213 -185 99 132
325 361 423 429 70 48 81 55 81 48z m-570 -864 c-13 -21 -49 -85 -81 -143 -55
-99 -71 -118 -270 -315 l-211 -210 62 125 62 125 226 228 c125 125 228 227
230 227 2 0 -6 -17 -18 -37z m-284 -530 l-64 -128 -188 -185 c-102 -102 -184
-178 -181 -170 3 8 24 58 47 110 42 94 43 96 243 298 111 111 203 202 204 202
2 0 -26 -57 -61 -127z m-174 -376 l-47 -106 -183 -183 -183 -183 45 110 45
109 183 183 c100 100 183 181 185 179 1 -1 -19 -50 -45 -109z m-149 -344 l-45
-108 -166 -167 c-91 -92 -167 -166 -169 -164 -2 2 13 45 33 97 l35 94 177 178
c97 97 177 177 178 177 1 0 -18 -48 -43 -107z m297 -366 c0 -1 -86 -88 -191
-192 -105 -105 -186 -181 -181 -170 6 11 20 41 32 67 38 85 115 157 269 255
69 43 71 45 71 40z"/>
<path d="M203 4958 c-174 -172 -196 -198 -191 -231 3 -19 32 5 192 163 103
102 192 193 197 203 8 14 5 17 -17 17 -21 0 -60 -33 -181 -152z"/>
<path d="M303 4858 c-140 -139 -264 -265 -275 -281 -10 -15 -18 -37 -16 -50 3
-18 49 23 292 263 158 157 292 293 297 303 8 14 5 17 -17 17 -22 0 -75 -47
-281 -252z"/>
<path d="M402 4758 c-194 -194 -362 -365 -373 -381 -11 -15 -19 -37 -17 -50 4
-18 67 40 392 363 213 212 392 393 397 403 8 14 5 17 -18 17 -22 0 -89 -62
-381 -352z"/>
<path d="M502 4658 c-249 -249 -462 -465 -473 -481 -11 -15 -19 -37 -17 -50 4
-18 84 57 492 463 268 267 492 493 497 503 8 14 5 17 -18 17 -22 0 -104 -76
-481 -452z"/>
<path d="M602 4558 c-304 -304 -562 -565 -573 -581 -11 -15 -19 -37 -17 -50 4
-18 101 75 592 563 323 322 592 593 597 603 8 14 5 17 -18 17 -23 0 -118 -91
-581 -552z"/>
<path d="M702 4458 c-359 -359 -662 -665 -673 -681 -11 -15 -19 -37 -17 -50 4
-18 118 92 692 663 378 377 692 693 697 703 8 14 5 17 -18 17 -23 0 -133 -106
-681 -652z"/>
<path d="M802 4358 c-414 -414 -762 -765 -773 -781 -11 -15 -19 -37 -17 -50 4
-18 136 109 792 763 433 432 792 793 797 803 8 14 5 17 -18 17 -23 0 -148
-120 -781 -752z"/>
<path d="M902 4258 c-469 -469 -862 -865 -873 -881 -11 -15 -19 -37 -17 -50 4
-18 153 126 892 863 488 487 892 893 897 903 8 14 5 17 -18 17 -23 0 -162
-135 -881 -852z"/>
<path d="M1002 4158 c-524 -524 -962 -965 -973 -981 -11 -15 -19 -37 -17 -50
4 -18 170 144 992 963 543 542 992 993 997 1003 8 14 5 17 -18 17 -23 0 -177
-149 -981 -952z"/>
<path d="M1102 4058 c-579 -579 -1062 -1065 -1073 -1081 -11 -15 -19 -37 -17
-50 4 -18 188 161 1092 1063 598 597 1092 1093 1097 1103 8 14 5 17 -18 17
-23 0 -191 -164 -1081 -1052z"/>
<path d="M1202 3958 c-634 -634 -1162 -1165 -1173 -1181 -11 -15 -19 -37 -17
-50 4 -18 205 178 1192 1163 653 652 1192 1193 1197 1203 8 14 5 17 -18 17
-23 0 -206 -178 -1181 -1152z"/>
<path d="M4496 650 c-339 -338 -622 -623 -627 -632 -8 -15 -5 -18 18 -18 23 0
123 95 611 583 321 320 592 594 603 610 11 15 19 37 17 50 -4 18 -106 -80
-622 -593z"/>
<path d="M4596 550 c-284 -283 -522 -523 -527 -533 -8 -14 -5 -17 18 -17 23 0
108 81 511 483 266 265 492 494 503 510 11 15 19 37 17 50 -4 18 -89 -62 -522
-493z"/>
<path d="M4696 450 c-229 -228 -422 -423 -427 -432 -8 -15 -5 -18 18 -18 22 0
93 66 411 383 211 210 392 394 403 410 11 15 19 37 17 50 -4 18 -72 -45 -422
-393z"/>
<path d="M4796 350 c-174 -173 -322 -323 -327 -332 -8 -15 -5 -18 17 -18 23 0
80 52 312 282 156 156 293 295 303 311 11 15 19 37 17 50 -4 18 -54 -28 -322
-293z"/>
<path d="M4896 250 c-119 -118 -222 -223 -227 -232 -8 -15 -5 -18 17 -18 21 0
65 37 211 183 205 202 226 227 221 260 -3 19 -37 -11 -222 -193z"/>
<path d="M4996 150 c-136 -133 -149 -150 -111 -150 18 0 49 23 111 82 102 98
127 130 122 161 -3 19 -19 7 -122 -93z"/>
</g>
</svg>
